<?xml version="1.0" encoding="UTF-8"?><svg id="Layer_2" xmlns="http://www.w3.org/2000/svg" viewBox="0 0 69.33 69.33"><defs><style>.cls-1{fill:blue;}.cls-2{fill:#fff;}</style></defs><g id="Layer_1-2"><rect class="cls-1" width="69.33" height="69.33"/><path class="cls-2" d="M0,0h3.66v3.66H0V0ZM0,14.58h3.66v3.66H0v-3.66ZM0,29.19h3.66v3.66H0v-3.66ZM0,43.77h3.66v3.66H0v-3.66ZM0,58.38h3.66v3.66H0v-3.66ZM7.29,7.29h3.66v3.66h-3.66v-3.66ZM7.29,21.9h3.66v3.63h-3.66v-3.63ZM7.29,36.48h3.66v3.66h-3.66v-3.66ZM7.29,51.09h3.66v3.63h-3.66v-3.63ZM7.29,65.67h3.66v3.66h-3.66v-3.66ZM14.58,0h3.66v3.66h-3.66V0ZM14.58,14.58h3.66v3.66h-3.66v-3.66ZM14.58,29.19h3.66v3.66h-3.66v-3.66ZM14.58,43.77h3.66v3.66h-3.66v-3.66ZM14.58,58.38h3.66v3.66h-3.66v-3.66ZM21.9,7.29h3.63v3.66h-3.63v-3.66ZM21.9,21.9h3.63v3.63h-3.63v-3.63ZM21.9,36.48h3.63v3.66h-3.63v-3.66ZM21.9,51.09h3.63v3.63h-3.63v-3.63ZM21.9,65.67h3.63v3.66h-3.63v-3.66ZM29.19,0h3.66v3.66h-3.66V0ZM29.19,14.58h3.66v3.66h-3.66v-3.66ZM29.19,29.19h3.66v3.66h-3.66v-3.66ZM29.19,43.77h3.66v3.66h-3.66v-3.66ZM29.19,58.38h3.66v3.66h-3.66v-3.66ZM36.48,7.29h3.66v3.66h-3.66v-3.66ZM36.48,21.9h3.66v3.63h-3.66v-3.63ZM36.48,36.48h3.66v3.66h-3.66v-3.66ZM36.48,51.09h3.66v3.63h-3.66v-3.63ZM36.48,65.67h3.66v3.66h-3.66v-3.66Z"/><path class="cls-2" d="M41.28,0h3.66v3.66h-3.66V0ZM41.28,14.58h3.66v3.66h-3.66v-3.66ZM41.28,29.19h3.66v3.66h-3.66v-3.66ZM41.28,43.77h3.66v3.66h-3.66v-3.66ZM41.28,58.38h3.66v3.66h-3.66v-3.66ZM48.57,7.29h3.66v3.66h-3.66v-3.66ZM48.57,21.9h3.66v3.63h-3.66v-3.63ZM48.57,36.48h3.66v3.66h-3.66v-3.66ZM48.57,51.09h3.66v3.63h-3.66v-3.63ZM48.57,65.67h3.66v3.66h-3.66v-3.66ZM55.86,0h3.66v3.66h-3.66V0ZM55.86,14.58h3.66v3.66h-3.66v-3.66ZM55.86,29.19h3.66v3.66h-3.66v-3.66ZM55.86,43.77h3.66v3.66h-3.66v-3.66ZM55.86,58.38h3.66v3.66h-3.66v-3.66ZM63.18,7.29h3.63v3.66h-3.63v-3.66ZM63.18,21.9h3.63v3.63h-3.63v-3.63ZM63.18,36.48h3.63v3.66h-3.63v-3.66ZM63.18,51.09h3.63v3.63h-3.63v-3.63ZM63.18,65.67h3.63v3.66h-3.63v-3.66Z"/></g></svg>